<?xml version="1.0" encoding="utf-8"?>
<!-- Generator: Adobe Illustrator 22.0.1, SVG Export Plug-In . SVG Version: 6.00 Build 0)  -->
<svg version="1.1" xmlns="http://www.w3.org/2000/svg" xmlns:xlink="http://www.w3.org/1999/xlink" x="0px" y="0px"
	 viewBox="0 0 745 458.4" style="enable-background:new 0 0 745 458.4;" xml:space="preserve">
<style type="text/css">
	.st0{fill:#777777;}
	.st1{fill:none;stroke:#777777;stroke-width:1.5;stroke-miterlimit:10;}
	.st2{fill:#53C1DE;}
	.st3{fill:#FFFFFF;}
	.st4{fill:#333333;}
	.st5{fill:none;stroke:#99CE6B;stroke-width:1.5;stroke-miterlimit:10;}
	.st6{fill:none;stroke:#764ABC;stroke-width:1.5;stroke-miterlimit:10;}
	.st7{fill:none;stroke:#53C1DE;stroke-width:1.5;stroke-miterlimit:10;}
	.st8{fill:#764ABC;}
	.st9{fill:none;stroke:#333333;stroke-width:2;stroke-miterlimit:10;}
</style>
<g id="Original">
</g>
<g id="Layer_2">
	<g>
		<g>
			<polygon class="st0" points="631.5,128.3 618.4,128.3 625,134.8 			"/>
		</g>
	</g>
	<g>
		<g>
			<polygon class="st0" points="448.4,134.1 461.5,134.1 455,127.5 			"/>
		</g>
	</g>
	<g>
		<g>
			<polygon class="st0" points="448.4,188.8 461.5,188.8 455,182.3 			"/>
		</g>
	</g>
	<g>
		<g>
			<line class="st1" x1="455" y1="260.7" x2="455" y2="251.5"/>
			<g>
				<polygon class="st0" points="448.4,252.4 461.5,252.4 455,245.8 				"/>
			</g>
		</g>
	</g>
	<g>
		<g>
			<line class="st1" x1="347.7" y1="252.4" x2="363.9" y2="252.4"/>
			<g>
				<polygon class="st0" points="363,245.8 363,258.9 369.6,252.4 				"/>
			</g>
		</g>
	</g>
	<g>
		<g>
			<g>
				<line class="st1" x1="251.5" y1="239.7" x2="262.9" y2="239.7"/>
				<g>
					<polygon class="st0" points="262.1,233.1 262.1,246.2 268.6,239.7 					"/>
				</g>
			</g>
		</g>
		<g>
			<g>
				<line class="st1" x1="268.6" y1="265.1" x2="256.3" y2="265.1"/>
				<g>
					<polygon class="st0" points="257.2,271.6 257.2,258.5 250.7,265.1 					"/>
				</g>
			</g>
		</g>
	</g>
	<g>
		<path class="st2" d="M690.7,279.8c-0.3-0.1-0.7-0.2-1-0.3c0.1-0.2,0.1-0.5,0.2-0.7c0.8-3.8,0.3-6.9-1.5-7.9c-1.7-1-4.5,0-7.3,2.5
			c-0.3,0.2-0.5,0.5-0.8,0.7c-0.2-0.2-0.4-0.3-0.5-0.5c-2.9-2.6-5.9-3.7-7.6-2.7c-1.7,1-2.2,3.9-1.5,7.5c0.1,0.4,0.2,0.7,0.2,1.1
			c-0.4,0.1-0.8,0.2-1.2,0.4c-3.4,1.2-5.6,3.1-5.6,5c0,2,2.4,4,5.9,5.2c0.3,0.1,0.6,0.2,0.9,0.3c-0.1,0.4-0.2,0.8-0.3,1.2
			c-0.7,3.6-0.1,6.4,1.5,7.4c1.7,1,4.7,0,7.5-2.5c0.2-0.2,0.5-0.4,0.7-0.6c0.3,0.3,0.6,0.5,0.9,0.8c2.8,2.4,5.5,3.3,7.2,2.4
			c1.7-1,2.3-4.1,1.6-7.8c-0.1-0.3-0.1-0.6-0.2-0.9c0.2-0.1,0.4-0.1,0.6-0.2c3.7-1.2,6.1-3.2,6.1-5.3
			C696.5,282.9,694.2,281,690.7,279.8L690.7,279.8z"/>
		<path class="st3" d="M689.9,288.8c-0.2,0.1-0.4,0.1-0.5,0.2c-0.4-1.3-1-2.7-1.6-4.1c0.6-1.4,1.2-2.8,1.6-4c0.3,0.1,0.7,0.2,1,0.3
			c3,1,4.8,2.6,4.8,3.7C695.1,286.1,693.1,287.7,689.9,288.8L689.9,288.8z M688.6,291.4c0.3,1.6,0.4,3.1,0.2,4.3
			c-0.2,1-0.6,1.7-1.1,2c-1,0.6-3.2-0.2-5.6-2.2c-0.3-0.2-0.5-0.5-0.8-0.7c0.9-1,1.8-2.2,2.7-3.5c1.6-0.1,3.1-0.4,4.4-0.7
			C688.4,290.9,688.5,291.1,688.6,291.4L688.6,291.4z M675.1,297.6c-1,0.4-1.8,0.4-2.3,0.1c-1-0.6-1.4-2.9-0.9-5.9
			c0.1-0.4,0.1-0.7,0.2-1.1c1.3,0.3,2.8,0.5,4.4,0.6c0.9,1.3,1.8,2.4,2.8,3.4c-0.2,0.2-0.4,0.4-0.6,0.6
			C677.5,296.4,676.2,297.2,675.1,297.6L675.1,297.6z M670.4,288.8c-1.6-0.5-2.9-1.2-3.8-2c-0.8-0.7-1.2-1.4-1.2-1.9
			c0-1.2,1.8-2.7,4.7-3.7c0.4-0.1,0.7-0.2,1.1-0.4c0.4,1.3,0.9,2.7,1.6,4.1c-0.7,1.4-1.2,2.8-1.6,4.2
			C670.9,288.9,670.7,288.8,670.4,288.8z M672,278.1c-0.6-3.1-0.2-5.5,0.8-6.1c1.1-0.6,3.5,0.3,6,2.5c0.2,0.1,0.3,0.3,0.5,0.4
			c-0.9,1-1.9,2.2-2.8,3.4c-1.5,0.1-3,0.4-4.3,0.7C672.1,278.7,672,278.4,672,278.1L672,278.1z M686,281.5c-0.3-0.5-0.6-1.1-1-1.6
			c1,0.1,2,0.3,3,0.5c-0.3,0.9-0.6,1.8-1,2.8C686.6,282.7,686.3,282.1,686,281.5L686,281.5z M680.3,276c0.6,0.7,1.3,1.5,1.9,2.3
			c-1.3-0.1-2.6-0.1-3.8,0C679,277.4,679.6,276.7,680.3,276L680.3,276z M674.5,281.5c-0.3,0.6-0.6,1.1-0.9,1.7c-0.4-1-0.7-1.9-1-2.8
			c0.9-0.2,1.9-0.4,2.9-0.5C675.2,280.4,674.8,281,674.5,281.5z M675.5,289.8c-1.1-0.1-2.1-0.3-3-0.5c0.3-0.9,0.6-1.9,1.1-2.9
			c0.3,0.6,0.6,1.1,0.9,1.7C674.8,288.7,675.2,289.3,675.5,289.8z M680.3,293.8c-0.7-0.7-1.3-1.5-2-2.3c0.6,0,1.3,0,1.9,0
			c0.7,0,1.3,0,2,0C681.6,292.3,680.9,293.1,680.3,293.8z M686.9,286.4c0.4,1,0.8,1.9,1.1,2.9c-0.9,0.2-2,0.4-3,0.5
			c0.3-0.5,0.7-1.1,1-1.7C686.3,287.6,686.6,287,686.9,286.4L686.9,286.4z M684.8,287.5c-0.5,0.9-1,1.7-1.6,2.5c-1,0.1-2,0.1-3,0.1
			c-1,0-2,0-2.9-0.1c-0.6-0.8-1.1-1.7-1.6-2.5c-0.5-0.9-1-1.7-1.4-2.6c0.4-0.9,0.9-1.8,1.4-2.6v0c0.5-0.9,1-1.7,1.6-2.5
			c1-0.1,2-0.1,3-0.1c1,0,2,0,3,0.1c0.6,0.8,1.1,1.6,1.6,2.5c0.5,0.9,1,1.7,1.4,2.6C685.7,285.7,685.3,286.6,684.8,287.5
			L684.8,287.5z M687.6,272c1.1,0.6,1.5,3.2,0.8,6.5c0,0.2-0.1,0.4-0.1,0.6c-1.3-0.3-2.8-0.5-4.3-0.7c-0.9-1.3-1.8-2.4-2.7-3.4
			c0.2-0.2,0.5-0.5,0.7-0.7C684.4,272.2,686.6,271.4,687.6,272L687.6,272z"/>
		<path class="st2" d="M680.2,281.9c1.6,0,2.9,1.3,2.9,2.9c0,1.6-1.3,2.9-2.9,2.9c-1.6,0-2.9-1.3-2.9-2.9
			C677.3,283.2,678.6,281.9,680.2,281.9"/>
	</g>
	<g>
		<path class="st4" d="M394.4,283c0,1.8-0.8,3-2.4,3.5l2.9,4.1h-2.4l-2.7-3.8h-2.5v3.8h-1.9v-11.2h4.2c1.7,0,2.9,0.3,3.7,0.9
			C394,280.8,394.4,281.7,394.4,283z M391.9,284.5c0.4-0.3,0.6-0.9,0.6-1.6c0-0.7-0.2-1.2-0.6-1.5c-0.4-0.3-1.1-0.4-2.1-0.4h-2.4v4
			h2.4C390.8,285,391.5,284.9,391.9,284.5z"/>
		<path class="st4" d="M405,279.3v1.8h-6v3h5.4v1.7H399v3h6.2v1.8h-8v-11.2H405z"/>
		<path class="st4" d="M409.2,288l-1.1,2.5h-2l4.9-11.2h2l4.9,11.2h-2l-1.1-2.5H409.2z M414,286.2l-2-4.6l-2,4.6H414z"/>
		<path class="st4" d="M424.5,288.8c0.7,0,1.2-0.1,1.7-0.3c0.5-0.2,1-0.6,1.5-1l1.2,1.2c-1.2,1.3-2.6,2-4.3,2s-3.1-0.5-4.2-1.6
			s-1.7-2.5-1.7-4.1s0.6-3.1,1.7-4.2c1.1-1.1,2.6-1.7,4.3-1.7s3.2,0.6,4.3,1.9l-1.2,1.3c-0.5-0.5-1-0.9-1.5-1.1
			c-0.5-0.2-1-0.3-1.7-0.3c-1.1,0-2.1,0.4-2.8,1.1s-1.2,1.7-1.2,2.8c0,1.1,0.4,2.1,1.1,2.8S423.5,288.8,424.5,288.8z"/>
		<path class="st4" d="M435.4,281.1v9.5h-1.9v-9.5h-3.4v-1.7h8.7v1.7H435.4z"/>
		<path class="st4" d="M450.4,288.8c0.7,0,1.2-0.1,1.7-0.3c0.5-0.2,1-0.6,1.5-1l1.2,1.2c-1.2,1.3-2.6,2-4.3,2s-3.1-0.5-4.2-1.6
			s-1.7-2.5-1.7-4.1s0.6-3.1,1.7-4.2c1.1-1.1,2.6-1.7,4.3-1.7s3.2,0.6,4.3,1.9l-1.2,1.3c-0.5-0.5-1-0.9-1.5-1.1
			c-0.5-0.2-1-0.3-1.7-0.3c-1.1,0-2.1,0.4-2.8,1.1s-1.2,1.7-1.2,2.8c0,1.1,0.4,2.1,1.1,2.8S449.3,288.8,450.4,288.8z"/>
		<path class="st4" d="M466.2,289c-1.1,1.1-2.5,1.7-4.2,1.7c-1.7,0-3.1-0.6-4.2-1.7c-1.1-1.1-1.7-2.5-1.7-4.1s0.6-3,1.7-4.1
			c1.1-1.1,2.5-1.7,4.2-1.7c1.7,0,3.1,0.6,4.2,1.7c1.1,1.1,1.7,2.5,1.7,4.1S467.3,287.9,466.2,289z M464.8,282
			c-0.8-0.8-1.7-1.2-2.8-1.2c-1.1,0-2,0.4-2.8,1.2c-0.8,0.8-1.1,1.7-1.1,2.9s0.4,2.1,1.1,2.9c0.8,0.8,1.7,1.2,2.8,1.2
			c1.1,0,2-0.4,2.8-1.2c0.8-0.8,1.1-1.7,1.1-2.9S465.5,282.8,464.8,282z"/>
		<path class="st4" d="M472.1,290.5h-1.9v-11.2h2.9l3.4,7l3.4-7h2.9v11.2H481v-8.7l-3.9,7.8H476l-3.9-7.8V290.5z"/>
		<path class="st4" d="M493.5,280.3c0.8,0.7,1.2,1.7,1.2,3c0,1.4-0.4,2.3-1.2,3c-0.8,0.6-2,0.9-3.7,0.9h-2v3.3H486v-11.2h3.8
			C491.5,279.3,492.7,279.7,493.5,280.3z M492.2,284.9c0.4-0.4,0.6-1,0.6-1.8s-0.2-1.3-0.7-1.6c-0.5-0.3-1.2-0.5-2.3-0.5h-1.9v4.5
			h2.2C491.1,285.5,491.8,285.3,492.2,284.9z"/>
		<path class="st4" d="M506.3,289c-1.1,1.1-2.5,1.7-4.2,1.7c-1.7,0-3.1-0.6-4.2-1.7c-1.1-1.1-1.7-2.5-1.7-4.1s0.6-3,1.7-4.1
			c1.1-1.1,2.5-1.7,4.2-1.7c1.7,0,3.1,0.6,4.2,1.7c1.1,1.1,1.7,2.5,1.7,4.1S507.4,287.9,506.3,289z M504.9,282
			c-0.8-0.8-1.7-1.2-2.8-1.2c-1.1,0-2,0.4-2.8,1.2c-0.8,0.8-1.1,1.7-1.1,2.9s0.4,2.1,1.1,2.9c0.8,0.8,1.7,1.2,2.8,1.2
			c1.1,0,2-0.4,2.8-1.2c0.8-0.8,1.1-1.7,1.1-2.9S505.7,282.8,504.9,282z"/>
		<path class="st4" d="M518.7,279.3h1.9v11.2h-2l-6.3-8.2v8.2h-1.9v-11.2h1.9l6.5,8.4V279.3z"/>
		<path class="st4" d="M531.6,279.3v1.8h-6v3h5.4v1.7h-5.4v3h6.2v1.8h-8v-11.2H531.6z"/>
		<path class="st4" d="M542.6,279.3h1.9v11.2h-2l-6.3-8.2v8.2h-1.9v-11.2h1.9l6.5,8.4V279.3z"/>
		<path class="st4" d="M551.8,281.1v9.5h-1.9v-9.5h-3.4v-1.7h8.7v1.7H551.8z"/>
	</g>
	<path class="st5" d="M714.5,427.7h-434c-1.8,0-3.3-1.5-3.3-3.3V34.1c0-1.8,1.5-3.3,3.3-3.3h434c1.8,0,3.3,1.5,3.3,3.3v390.3
		C717.8,426.2,716.3,427.7,714.5,427.7z"/>
	<path class="st6" d="M701.7,240.9H378.2c-1.9,0-3.4-1.5-3.4-3.4V48.4c0-1.9,1.5-3.4,3.4-3.4h323.6c1.9,0,3.4,1.5,3.4,3.4v189.1
		C705.1,239.4,703.6,240.9,701.7,240.9z"/>
	<path class="st7" d="M703.2,413.4H378.8c-1.6,0-3-1.3-3-3V267.2c0-1.6,1.3-3,3-3h324.4c1.6,0,3,1.3,3,3v143.2
		C706.1,412,704.8,413.4,703.2,413.4z"/>
	<path class="st1" d="M691.5,402.9H390.4c-2.2,0-3.9-1.8-3.9-3.9v-30.1c0-2.2,1.8-3.9,3.9-3.9h301.1c2.2,0,3.9,1.8,3.9,3.9V399
		C695.5,401.1,693.7,402.9,691.5,402.9z"/>
	<g>
		<path class="st0" d="M435.4,382.4c0,1.4-0.6,2.3-1.8,2.6l2.2,3H434l-2-2.8h-1.9v2.8h-1.4v-8.4h3.1c1.3,0,2.2,0.2,2.7,0.6
			C435.1,380.8,435.4,381.5,435.4,382.4z M433.5,383.6c0.3-0.2,0.4-0.6,0.4-1.2s-0.1-0.9-0.4-1.1c-0.3-0.2-0.8-0.3-1.6-0.3h-1.8v3
			h1.8C432.7,384,433.2,383.9,433.5,383.6z"/>
		<path class="st0" d="M443.3,379.7v1.3h-4.5v2.2h4v1.3h-4v2.2h4.6v1.3h-6v-8.4H443.3z"/>
		<path class="st0" d="M446.5,386.2l-0.8,1.9h-1.5l3.7-8.4h1.5l3.7,8.4h-1.5l-0.8-1.9H446.5z M450.1,384.9l-1.5-3.5l-1.5,3.5H450.1z
			"/>
		<path class="st0" d="M458,386.8c0.5,0,0.9-0.1,1.3-0.2c0.4-0.2,0.7-0.4,1.1-0.8l0.9,0.9c-0.9,1-2,1.5-3.2,1.5s-2.3-0.4-3.2-1.2
			c-0.8-0.8-1.3-1.8-1.3-3.1s0.4-2.3,1.3-3.1c0.9-0.8,1.9-1.2,3.2-1.2c1.3,0,2.4,0.5,3.3,1.4l-0.9,1c-0.4-0.4-0.8-0.7-1.1-0.8
			c-0.4-0.2-0.8-0.2-1.3-0.2c-0.8,0-1.6,0.3-2.1,0.8c-0.6,0.5-0.9,1.2-0.9,2.1c0,0.9,0.3,1.6,0.9,2.1
			C456.6,386.5,457.2,386.8,458,386.8z"/>
		<path class="st0" d="M466.2,381v7.1h-1.4V381h-2.5v-1.3h6.5v1.3H466.2z"/>
		<path class="st0" d="M477.4,386.8c0.5,0,0.9-0.1,1.3-0.2c0.4-0.2,0.7-0.4,1.1-0.8l0.9,0.9c-0.9,1-2,1.5-3.2,1.5
			c-1.3,0-2.3-0.4-3.2-1.2c-0.8-0.8-1.3-1.8-1.3-3.1s0.4-2.3,1.3-3.1c0.9-0.8,1.9-1.2,3.2-1.2s2.4,0.5,3.3,1.4l-0.9,1
			c-0.4-0.4-0.8-0.7-1.1-0.8c-0.4-0.2-0.8-0.2-1.3-0.2c-0.8,0-1.6,0.3-2.1,0.8s-0.9,1.2-0.9,2.1c0,0.9,0.3,1.6,0.9,2.1
			C475.9,386.5,476.6,386.8,477.4,386.8z"/>
		<path class="st0" d="M489.2,386.9c-0.8,0.8-1.9,1.2-3.1,1.2s-2.3-0.4-3.1-1.2c-0.8-0.8-1.3-1.9-1.3-3.1c0-1.2,0.4-2.3,1.3-3.1
			c0.8-0.8,1.9-1.2,3.1-1.2s2.3,0.4,3.1,1.2c0.8,0.8,1.3,1.9,1.3,3.1C490.5,385.1,490.1,386.1,489.2,386.9z M488.2,381.7
			c-0.6-0.6-1.3-0.9-2.1-0.9s-1.5,0.3-2.1,0.9c-0.6,0.6-0.9,1.3-0.9,2.2c0,0.8,0.3,1.6,0.9,2.2c0.6,0.6,1.3,0.9,2.1,0.9
			s1.5-0.3,2.1-0.9c0.6-0.6,0.9-1.3,0.9-2.2C489.1,383,488.8,382.3,488.2,381.7z"/>
		<path class="st0" d="M493.7,388.1h-1.4v-8.4h2.2l2.5,5.3l2.5-5.3h2.2v8.4h-1.4v-6.6l-2.9,5.8h-0.8l-2.9-5.8V388.1z"/>
		<path class="st0" d="M509.8,380.4c0.6,0.5,0.9,1.2,0.9,2.3c0,1-0.3,1.8-0.9,2.2c-0.6,0.5-1.5,0.7-2.7,0.7h-1.5v2.5h-1.4v-8.4h2.9
			C508.2,379.7,509.2,379.9,509.8,380.4z M508.8,383.9c0.3-0.3,0.4-0.7,0.4-1.3c0-0.6-0.2-1-0.5-1.2c-0.4-0.2-0.9-0.4-1.7-0.4h-1.4
			v3.4h1.6C507.9,384.3,508.5,384.2,508.8,383.9z"/>
		<path class="st0" d="M519.3,386.9c-0.8,0.8-1.9,1.2-3.1,1.2s-2.3-0.4-3.1-1.2c-0.8-0.8-1.3-1.9-1.3-3.1c0-1.2,0.4-2.3,1.3-3.1
			c0.8-0.8,1.9-1.2,3.1-1.2s2.3,0.4,3.1,1.2c0.8,0.8,1.3,1.9,1.3,3.1C520.6,385.1,520.2,386.1,519.3,386.9z M518.3,381.7
			c-0.6-0.6-1.3-0.9-2.1-0.9s-1.5,0.3-2.1,0.9c-0.6,0.6-0.9,1.3-0.9,2.2c0,0.8,0.3,1.6,0.9,2.2c0.6,0.6,1.3,0.9,2.1,0.9
			s1.5-0.3,2.1-0.9c0.6-0.6,0.9-1.3,0.9-2.2C519.1,383,518.9,382.3,518.3,381.7z"/>
		<path class="st0" d="M528.7,379.7h1.4v8.4h-1.5l-4.8-6.1v6.1h-1.4v-8.4h1.4l4.9,6.3V379.7z"/>
		<path class="st0" d="M538.3,379.7v1.3h-4.5v2.2h4v1.3h-4v2.2h4.6v1.3h-6v-8.4H538.3z"/>
		<path class="st0" d="M546.5,379.7h1.4v8.4h-1.5l-4.8-6.1v6.1h-1.4v-8.4h1.4l4.9,6.3V379.7z"/>
		<path class="st0" d="M553.5,381v7.1H552V381h-2.5v-1.3h6.5v1.3H553.5z"/>
		<path class="st0" d="M561.1,381v-1.3h4.1v5.5c0,1-0.2,1.7-0.7,2.2s-1.1,0.7-1.9,0.7c-1,0-1.8-0.3-2.5-1l0.8-1.1
			c0.5,0.5,1.1,0.8,1.6,0.8c0.4,0,0.7-0.1,0.9-0.4s0.4-0.6,0.4-1.1V381H561.1z"/>
		<path class="st0" d="M570,380.8c-0.4,0-0.8,0.1-1,0.3c-0.3,0.2-0.4,0.4-0.4,0.8c0,0.3,0.1,0.6,0.4,0.8c0.3,0.2,0.8,0.4,1.7,0.6
			c0.9,0.2,1.5,0.5,1.9,0.9c0.4,0.4,0.7,0.9,0.7,1.7c0,0.7-0.3,1.3-0.8,1.8s-1.3,0.7-2.2,0.7c-1.3,0-2.5-0.5-3.5-1.4l0.9-1.1
			c0.8,0.7,1.7,1.1,2.6,1.1c0.5,0,0.8-0.1,1.1-0.3c0.3-0.2,0.4-0.5,0.4-0.8c0-0.3-0.1-0.6-0.4-0.8c-0.3-0.2-0.7-0.3-1.3-0.5
			c-0.6-0.1-1.1-0.3-1.4-0.4c-0.3-0.1-0.6-0.3-0.9-0.5c-0.5-0.4-0.7-1-0.7-1.7c0-0.8,0.3-1.4,0.8-1.8c0.6-0.4,1.3-0.6,2.1-0.6
			c0.5,0,1.1,0.1,1.6,0.3c0.5,0.2,1,0.4,1.4,0.7l-0.8,1.1c-0.2-0.2-0.6-0.4-1-0.6C570.8,380.9,570.4,380.8,570,380.8z"/>
		<path class="st0" d="M580,388.1l-2.1-3.2h-0.1l-2.1,3.2H574l2.9-4.3l-2.7-4.1h1.8l1.9,2.8h0.1l1.9-2.8h1.8l-2.7,4.1l2.9,4.3H580z"
			/>
		<path class="st0" d="M587.4,378.4h1.2l-5.2,11.1h-1.2L587.4,378.4z"/>
		<path class="st0" d="M590.1,388.1v-8.4h1.4v7h3.8v1.3H590.1z"/>
		<path class="st0" d="M596.9,379.7h1.4v8.4h-1.4V379.7z"/>
		<path class="st0" d="M602.1,381v2.3h3.7v1.3h-3.7v3.5h-1.4v-8.4h5.6l0,1.3H602.1z"/>
		<path class="st0" d="M613.8,379.7v1.3h-4.5v2.2h4v1.3h-4v2.2h4.6v1.3h-6v-8.4H613.8z"/>
		<path class="st0" d="M619.6,386.8c0.5,0,0.9-0.1,1.3-0.2c0.4-0.2,0.7-0.4,1.1-0.8l0.9,0.9c-0.9,1-2,1.5-3.2,1.5
			c-1.3,0-2.3-0.4-3.2-1.2c-0.8-0.8-1.3-1.8-1.3-3.1s0.4-2.3,1.3-3.1c0.9-0.8,1.9-1.2,3.2-1.2s2.4,0.5,3.3,1.4l-0.9,1
			c-0.4-0.4-0.8-0.7-1.1-0.8c-0.4-0.2-0.8-0.2-1.3-0.2c-0.8,0-1.6,0.3-2.1,0.8s-0.9,1.2-0.9,2.1c0,0.9,0.3,1.6,0.9,2.1
			C618.1,386.5,618.8,386.8,619.6,386.8z"/>
		<path class="st0" d="M627.9,388.1h-1.4v-3.3l-3.1-5.1h1.5l2.3,3.8l2.3-3.8h1.5l-3.1,5.1V388.1z"/>
		<path class="st0" d="M635.9,386.8c0.5,0,0.9-0.1,1.3-0.2c0.4-0.2,0.7-0.4,1.1-0.8l0.9,0.9c-0.9,1-2,1.5-3.2,1.5
			c-1.3,0-2.3-0.4-3.2-1.2c-0.8-0.8-1.3-1.8-1.3-3.1s0.4-2.3,1.3-3.1c0.9-0.8,1.9-1.2,3.2-1.2s2.4,0.5,3.3,1.4l-0.9,1
			c-0.4-0.4-0.8-0.7-1.1-0.8c-0.4-0.2-0.8-0.2-1.3-0.2c-0.8,0-1.6,0.3-2.1,0.8s-0.9,1.2-0.9,2.1c0,0.9,0.3,1.6,0.9,2.1
			C634.4,386.5,635.1,386.8,635.9,386.8z"/>
		<path class="st0" d="M640.9,388.1v-8.4h1.4v7h3.8v1.3H640.9z"/>
		<path class="st0" d="M653.6,379.7v1.3h-4.5v2.2h4v1.3h-4v2.2h4.6v1.3h-6v-8.4H653.6z"/>
	</g>
	<path class="st1" d="M691.5,343.9H390.4c-2.2,0-3.9-1.8-3.9-3.9v-30.1c0-2.2,1.8-3.9,3.9-3.9h301.1c2.2,0,3.9,1.8,3.9,3.9V340
		C695.5,342.1,693.7,343.9,691.5,343.9z"/>
	<g>
		<path class="st0" d="M438.8,323.4c0,1.4-0.6,2.3-1.8,2.6l2.2,3h-1.8l-2-2.8h-1.9v2.8h-1.4v-8.4h3.1c1.3,0,2.2,0.2,2.7,0.6
			C438.5,321.8,438.8,322.5,438.8,323.4z M436.9,324.6c0.3-0.2,0.4-0.6,0.4-1.2s-0.1-0.9-0.4-1.1c-0.3-0.2-0.8-0.3-1.6-0.3h-1.8v3
			h1.8C436.1,325,436.6,324.9,436.9,324.6z"/>
		<path class="st0" d="M446.7,320.7v1.3h-4.5v2.2h4v1.3h-4v2.2h4.6v1.3h-6v-8.4H446.7z"/>
		<path class="st0" d="M449.9,327.2l-0.8,1.9h-1.5l3.7-8.4h1.5l3.7,8.4h-1.5l-0.8-1.9H449.9z M453.5,325.9l-1.5-3.5l-1.5,3.5H453.5z
			"/>
		<path class="st0" d="M461.4,327.8c0.5,0,0.9-0.1,1.3-0.2c0.4-0.2,0.7-0.4,1.1-0.8l0.9,0.9c-0.9,1-2,1.5-3.2,1.5s-2.3-0.4-3.2-1.2
			c-0.8-0.8-1.3-1.8-1.3-3.1s0.4-2.3,1.3-3.1c0.9-0.8,1.9-1.2,3.2-1.2c1.3,0,2.4,0.5,3.3,1.4l-0.9,1c-0.4-0.4-0.8-0.7-1.1-0.8
			c-0.4-0.2-0.8-0.2-1.3-0.2c-0.8,0-1.6,0.3-2.1,0.8c-0.6,0.5-0.9,1.2-0.9,2.1c0,0.9,0.3,1.6,0.9,2.1
			C460,327.5,460.6,327.8,461.4,327.8z"/>
		<path class="st0" d="M469.6,322v7.1h-1.4V322h-2.5v-1.3h6.5v1.3H469.6z"/>
		<path class="st0" d="M480.8,327.8c0.5,0,0.9-0.1,1.3-0.2s0.7-0.4,1.1-0.8l0.9,0.9c-0.9,1-2,1.5-3.2,1.5c-1.3,0-2.3-0.4-3.2-1.2
			c-0.8-0.8-1.3-1.8-1.3-3.1s0.4-2.3,1.3-3.1c0.9-0.8,1.9-1.2,3.2-1.2s2.4,0.5,3.3,1.4l-0.9,1c-0.4-0.4-0.8-0.7-1.1-0.8
			c-0.4-0.2-0.8-0.2-1.3-0.2c-0.8,0-1.6,0.3-2.1,0.8c-0.6,0.5-0.9,1.2-0.9,2.1c0,0.9,0.3,1.6,0.9,2.1
			C479.3,327.5,480,327.8,480.8,327.8z"/>
		<path class="st0" d="M492.6,327.9c-0.8,0.8-1.9,1.2-3.1,1.2s-2.3-0.4-3.1-1.2c-0.8-0.8-1.3-1.9-1.3-3.1c0-1.2,0.4-2.3,1.3-3.1
			c0.8-0.8,1.9-1.2,3.1-1.2s2.3,0.4,3.1,1.2s1.3,1.9,1.3,3.1C493.9,326.1,493.5,327.1,492.6,327.9z M491.6,322.7
			c-0.6-0.6-1.3-0.9-2.1-0.9s-1.5,0.3-2.1,0.9s-0.9,1.3-0.9,2.2c0,0.8,0.3,1.6,0.9,2.2c0.6,0.6,1.3,0.9,2.1,0.9s1.5-0.3,2.1-0.9
			c0.6-0.6,0.9-1.3,0.9-2.2C492.5,324,492.2,323.3,491.6,322.7z"/>
		<path class="st0" d="M497.1,329.1h-1.4v-8.4h2.2l2.5,5.3l2.5-5.3h2.2v8.4h-1.4v-6.6l-2.9,5.8H500l-2.9-5.8V329.1z"/>
		<path class="st0" d="M513.2,321.4c0.6,0.5,0.9,1.2,0.9,2.3c0,1-0.3,1.8-0.9,2.2c-0.6,0.5-1.5,0.7-2.7,0.7h-1.5v2.5h-1.4v-8.4h2.9
			C511.6,320.7,512.6,320.9,513.2,321.4z M512.2,324.9c0.3-0.3,0.4-0.7,0.4-1.3c0-0.6-0.2-1-0.5-1.2c-0.4-0.2-0.9-0.4-1.7-0.4h-1.4
			v3.4h1.6C511.3,325.3,511.9,325.2,512.2,324.9z"/>
		<path class="st0" d="M522.7,327.9c-0.8,0.8-1.9,1.2-3.1,1.2s-2.3-0.4-3.1-1.2c-0.8-0.8-1.3-1.9-1.3-3.1c0-1.2,0.4-2.3,1.3-3.1
			c0.8-0.8,1.9-1.2,3.1-1.2s2.3,0.4,3.1,1.2s1.3,1.9,1.3,3.1C524,326.1,523.6,327.1,522.7,327.9z M521.7,322.7
			c-0.6-0.6-1.3-0.9-2.1-0.9s-1.5,0.3-2.1,0.9s-0.9,1.3-0.9,2.2c0,0.8,0.3,1.6,0.9,2.2c0.6,0.6,1.3,0.9,2.1,0.9s1.5-0.3,2.1-0.9
			c0.6-0.6,0.9-1.3,0.9-2.2C522.5,324,522.3,323.3,521.7,322.7z"/>
		<path class="st0" d="M532.1,320.7h1.4v8.4H532l-4.8-6.1v6.1h-1.4v-8.4h1.4l4.9,6.3V320.7z"/>
		<path class="st0" d="M541.7,320.7v1.3h-4.5v2.2h4v1.3h-4v2.2h4.6v1.3h-6v-8.4H541.7z"/>
		<path class="st0" d="M550,320.7h1.4v8.4h-1.5l-4.8-6.1v6.1h-1.4v-8.4h1.4l4.9,6.3V320.7z"/>
		<path class="st0" d="M556.9,322v7.1h-1.4V322h-2.5v-1.3h6.5v1.3H556.9z"/>
		<path class="st0" d="M566.8,321.8c-0.4,0-0.8,0.1-1,0.3s-0.4,0.4-0.4,0.8c0,0.3,0.1,0.6,0.4,0.8s0.8,0.4,1.7,0.6
			c0.9,0.2,1.5,0.5,1.9,0.9s0.7,0.9,0.7,1.7c0,0.7-0.3,1.3-0.8,1.8c-0.6,0.5-1.3,0.7-2.2,0.7c-1.3,0-2.5-0.5-3.5-1.4l0.9-1.1
			c0.8,0.7,1.7,1.1,2.6,1.1c0.5,0,0.8-0.1,1.1-0.3c0.3-0.2,0.4-0.5,0.4-0.8c0-0.3-0.1-0.6-0.4-0.8c-0.3-0.2-0.7-0.3-1.3-0.5
			c-0.6-0.1-1.1-0.3-1.4-0.4s-0.6-0.3-0.9-0.5c-0.5-0.4-0.7-1-0.7-1.7c0-0.8,0.3-1.4,0.8-1.8c0.6-0.4,1.3-0.6,2.1-0.6
			c0.5,0,1.1,0.1,1.6,0.3s1,0.4,1.4,0.7l-0.8,1.1c-0.2-0.2-0.6-0.4-1-0.6C567.6,321.9,567.2,321.8,566.8,321.8z"/>
		<path class="st0" d="M575,322v7.1h-1.4V322H571v-1.3h6.5v1.3H575z"/>
		<path class="st0" d="M579.6,327.2l-0.8,1.9h-1.5l3.7-8.4h1.5l3.7,8.4h-1.5l-0.8-1.9H579.6z M583.2,325.9l-1.5-3.5l-1.5,3.5H583.2z
			"/>
		<path class="st0" d="M589.8,322v7.1h-1.4V322h-2.5v-1.3h6.5v1.3H589.8z"/>
		<path class="st0" d="M599.8,320.7v1.3h-4.5v2.2h4v1.3h-4v2.2h4.6v1.3h-6v-8.4H599.8z"/>
		<path class="st0" d="M606.1,319.4h1.2l-5.2,11.1h-1.2L606.1,319.4z"/>
		<path class="st0" d="M614.4,321.4c0.6,0.5,0.9,1.2,0.9,2.3c0,1-0.3,1.8-0.9,2.2c-0.6,0.5-1.5,0.7-2.7,0.7h-1.5v2.5h-1.4v-8.4h2.9
			C612.9,320.7,613.8,320.9,614.4,321.4z M613.4,324.9c0.3-0.3,0.4-0.7,0.4-1.3c0-0.6-0.2-1-0.5-1.2s-0.9-0.4-1.7-0.4h-1.4v3.4h1.6
			C612.6,325.3,613.1,325.2,613.4,324.9z"/>
		<path class="st0" d="M623.7,323.4c0,1.4-0.6,2.3-1.8,2.6l2.2,3h-1.8l-2-2.8h-1.9v2.8H617v-8.4h3.1c1.3,0,2.2,0.2,2.7,0.6
			S623.7,322.5,623.7,323.4z M621.8,324.6c0.3-0.2,0.4-0.6,0.4-1.2s-0.1-0.9-0.4-1.1c-0.3-0.2-0.8-0.3-1.6-0.3h-1.8v3h1.8
			C621,325,621.5,324.9,621.8,324.6z"/>
		<path class="st0" d="M632.7,327.9c-0.8,0.8-1.9,1.2-3.1,1.2s-2.3-0.4-3.1-1.2c-0.8-0.8-1.3-1.9-1.3-3.1c0-1.2,0.4-2.3,1.3-3.1
			c0.8-0.8,1.9-1.2,3.1-1.2s2.3,0.4,3.1,1.2c0.8,0.8,1.3,1.9,1.3,3.1C634,326.1,633.6,327.1,632.7,327.9z M631.7,322.7
			c-0.6-0.6-1.3-0.9-2.1-0.9s-1.5,0.3-2.1,0.9c-0.6,0.6-0.9,1.3-0.9,2.2c0,0.8,0.3,1.6,0.9,2.2c0.6,0.6,1.3,0.9,2.1,0.9
			s1.5-0.3,2.1-0.9c0.6-0.6,0.9-1.3,0.9-2.2C632.5,324,632.3,323.3,631.7,322.7z"/>
		<path class="st0" d="M641.5,321.4c0.6,0.5,0.9,1.2,0.9,2.3c0,1-0.3,1.8-0.9,2.2c-0.6,0.5-1.5,0.7-2.7,0.7h-1.5v2.5h-1.4v-8.4h2.9
			C639.9,320.7,640.9,320.9,641.5,321.4z M640.5,324.9c0.3-0.3,0.4-0.7,0.4-1.3c0-0.6-0.2-1-0.5-1.2s-0.9-0.4-1.7-0.4h-1.4v3.4h1.6
			C639.6,325.3,640.2,325.2,640.5,324.9z"/>
		<path class="st0" d="M646.5,321.8c-0.4,0-0.8,0.1-1,0.3c-0.3,0.2-0.4,0.4-0.4,0.8c0,0.3,0.1,0.6,0.4,0.8c0.3,0.2,0.8,0.4,1.7,0.6
			c0.9,0.2,1.5,0.5,1.9,0.9c0.4,0.4,0.7,0.9,0.7,1.7c0,0.7-0.3,1.3-0.8,1.8c-0.6,0.5-1.3,0.7-2.2,0.7c-1.3,0-2.5-0.5-3.5-1.4
			l0.9-1.1c0.8,0.7,1.7,1.1,2.6,1.1c0.5,0,0.8-0.1,1.1-0.3c0.3-0.2,0.4-0.5,0.4-0.8c0-0.3-0.1-0.6-0.4-0.8c-0.3-0.2-0.7-0.3-1.3-0.5
			c-0.6-0.1-1.1-0.3-1.4-0.4c-0.3-0.1-0.6-0.3-0.9-0.5c-0.5-0.4-0.7-1-0.7-1.7c0-0.8,0.3-1.4,0.8-1.8c0.6-0.4,1.3-0.6,2.1-0.6
			c0.5,0,1.1,0.1,1.6,0.3c0.5,0.2,1,0.4,1.4,0.7l-0.8,1.1c-0.2-0.2-0.6-0.4-1-0.6C647.4,321.9,646.9,321.8,646.5,321.8z"/>
	</g>
	<path class="st1" d="M690.5,122.4H389.4c-2.2,0-3.9-1.8-3.9-3.9V88.4c0-2.2,1.8-3.9,3.9-3.9h301.1c2.2,0,3.9,1.8,3.9,3.9v30.1
		C694.5,120.6,692.7,122.4,690.5,122.4z"/>
	<g>
		<path class="st0" d="M505.5,102c0,1.4-0.6,2.3-1.8,2.6l2.2,3h-1.8l-2-2.8h-1.9v2.8h-1.4v-8.4h3.1c1.3,0,2.2,0.2,2.7,0.6
			C505.3,100.4,505.5,101.1,505.5,102z M503.7,103.2c0.3-0.2,0.4-0.6,0.4-1.2s-0.1-0.9-0.4-1.1c-0.3-0.2-0.8-0.3-1.6-0.3h-1.8v3h1.8
			C502.8,103.6,503.4,103.4,503.7,103.2z"/>
		<path class="st0" d="M513.5,99.3v1.3H509v2.2h4v1.3h-4v2.2h4.6v1.3h-6v-8.4H513.5z"/>
		<path class="st0" d="M521.8,100.4c0.8,0.7,1.2,1.8,1.2,3.1c0,1.3-0.4,2.3-1.2,3.1c-0.8,0.8-2,1.1-3.6,1.1h-2.8v-8.4h2.9
			C519.8,99.3,521,99.6,521.8,100.4z M521.6,103.5c0-1.9-1.1-2.9-3.3-2.9h-1.4v5.7h1.6c1,0,1.8-0.2,2.3-0.7
			C521.3,105.1,521.6,104.4,521.6,103.5z"/>
		<path class="st0" d="M526.7,105.7c0.4,0.4,0.9,0.7,1.6,0.7c0.7,0,1.2-0.2,1.6-0.7s0.6-1.1,0.6-1.8v-4.6h1.4v4.7
			c0,1.2-0.3,2.1-1,2.8c-0.7,0.7-1.5,1-2.6,1c-1,0-1.9-0.3-2.6-1c-0.7-0.7-1-1.6-1-2.8v-4.7h1.4v4.6
			C526.1,104.7,526.3,105.3,526.7,105.7z"/>
		<path class="st0" d="M539,107.7l-2.1-3.2h-0.1l-2.1,3.2H533l2.9-4.3l-2.7-4.1h1.8l1.9,2.8h0.1l1.9-2.8h1.8l-2.7,4.1l2.9,4.3H539z"
			/>
		<path class="st0" d="M547.9,100.4c-0.4,0-0.8,0.1-1,0.3c-0.3,0.2-0.4,0.4-0.4,0.8c0,0.3,0.1,0.6,0.4,0.8c0.3,0.2,0.8,0.4,1.7,0.6
			c0.9,0.2,1.5,0.5,1.9,0.9c0.4,0.4,0.7,0.9,0.7,1.7s-0.3,1.3-0.8,1.8c-0.6,0.5-1.3,0.7-2.2,0.7c-1.3,0-2.5-0.5-3.5-1.4l0.9-1.1
			c0.8,0.7,1.7,1.1,2.6,1.1c0.5,0,0.8-0.1,1.1-0.3c0.3-0.2,0.4-0.5,0.4-0.8c0-0.3-0.1-0.6-0.4-0.8c-0.3-0.2-0.7-0.3-1.3-0.5
			c-0.6-0.1-1.1-0.3-1.4-0.4s-0.6-0.3-0.9-0.5c-0.5-0.4-0.7-1-0.7-1.7s0.3-1.4,0.8-1.8s1.3-0.6,2.1-0.6c0.5,0,1.1,0.1,1.6,0.3
			c0.5,0.2,1,0.4,1.4,0.7l-0.8,1.1c-0.2-0.2-0.6-0.4-1-0.6C548.8,100.5,548.3,100.4,547.9,100.4z"/>
		<path class="st0" d="M556.1,100.6v7.1h-1.4v-7.1h-2.5v-1.3h6.5v1.3H556.1z"/>
		<path class="st0" d="M560.7,105.8l-0.8,1.9h-1.5l3.7-8.4h1.5l3.7,8.4h-1.5l-0.8-1.9H560.7z M564.4,104.5l-1.5-3.5l-1.5,3.5H564.4z
			"/>
		<path class="st0" d="M571,100.6v7.1h-1.4v-7.1H567v-1.3h6.5v1.3H571z"/>
		<path class="st0" d="M580.9,99.3v1.3h-4.5v2.2h4v1.3h-4v2.2h4.6v1.3h-6v-8.4H580.9z"/>
	</g>
	<path class="st1" d="M520.5,232.4H389.4c-2.2,0-3.9-1.8-3.9-3.9v-30.1c0-2.2,1.8-3.9,3.9-3.9h131.1c2.2,0,3.9,1.8,3.9,3.9v30.1
		C524.5,230.6,522.7,232.4,520.5,232.4z"/>
	<path class="st1" d="M520.6,177.4H389.4c-2.1,0-3.9-1.8-3.9-3.9v-30.2c0-2.1,1.8-3.9,3.9-3.9h131.2c2.1,0,3.9,1.8,3.9,3.9v30.2
		C524.5,175.7,522.7,177.4,520.6,177.4z"/>
	<g>
		<path class="st0" d="M428.5,157c0,1.4-0.6,2.3-1.8,2.6l2.2,3H427l-2-2.8h-1.9v2.8h-1.4v-8.4h3.1c1.3,0,2.2,0.2,2.7,0.6
			C428.2,155.4,428.5,156.1,428.5,157z M426.6,158.2c0.3-0.2,0.4-0.6,0.4-1.2s-0.1-0.9-0.4-1.1c-0.3-0.2-0.8-0.3-1.6-0.3h-1.8v3h1.8
			C425.7,158.6,426.3,158.4,426.6,158.2z"/>
		<path class="st0" d="M436.4,154.3v1.3h-4.5v2.2h4v1.3h-4v2.2h4.6v1.3h-6v-8.4H436.4z"/>
		<path class="st0" d="M444.7,155.4c0.8,0.7,1.2,1.8,1.2,3.1c0,1.3-0.4,2.3-1.2,3.1c-0.8,0.8-2,1.1-3.6,1.1h-2.8v-8.4h2.9
			C442.7,154.3,443.9,154.6,444.7,155.4z M444.5,158.5c0-1.9-1.1-2.9-3.3-2.9h-1.4v5.7h1.6c1,0,1.8-0.2,2.3-0.7
			C444.2,160.1,444.5,159.4,444.5,158.5z"/>
		<path class="st0" d="M449.6,160.7c0.4,0.4,0.9,0.7,1.6,0.7c0.7,0,1.2-0.2,1.6-0.7s0.6-1.1,0.6-1.8v-4.6h1.4v4.7
			c0,1.2-0.3,2.1-1,2.8c-0.7,0.7-1.5,1-2.6,1s-1.9-0.3-2.6-1c-0.7-0.7-1-1.6-1-2.8v-4.7h1.4v4.6C449,159.7,449.2,160.3,449.6,160.7z
			"/>
		<path class="st0" d="M460.8,161.4c0.5,0,0.9-0.1,1.3-0.2c0.4-0.2,0.7-0.4,1.1-0.8l0.9,0.9c-0.9,1-2,1.5-3.2,1.5
			c-1.3,0-2.3-0.4-3.2-1.2s-1.3-1.8-1.3-3.1s0.4-2.3,1.3-3.1c0.9-0.8,1.9-1.2,3.2-1.2s2.4,0.5,3.3,1.4l-0.9,1
			c-0.4-0.4-0.8-0.7-1.1-0.8c-0.4-0.2-0.8-0.2-1.3-0.2c-0.8,0-1.6,0.3-2.1,0.8s-0.9,1.2-0.9,2.1s0.3,1.6,0.9,2.1
			C459.3,161.1,460,161.4,460.8,161.4z"/>
		<path class="st0" d="M471.7,154.3v1.3h-4.5v2.2h4v1.3h-4v2.2h4.6v1.3h-6v-8.4H471.7z"/>
		<path class="st0" d="M480.3,157c0,1.4-0.6,2.3-1.8,2.6l2.2,3h-1.8l-2-2.8H475v2.8h-1.4v-8.4h3.1c1.3,0,2.2,0.2,2.7,0.6
			C480,155.4,480.3,156.1,480.3,157z M478.4,158.2c0.3-0.2,0.4-0.6,0.4-1.2s-0.1-0.9-0.4-1.1c-0.3-0.2-0.8-0.3-1.6-0.3H475v3h1.8
			C477.6,158.6,478.1,158.4,478.4,158.2z"/>
		<path class="st0" d="M484.9,155.4c-0.4,0-0.8,0.1-1,0.3c-0.3,0.2-0.4,0.4-0.4,0.8c0,0.3,0.1,0.6,0.4,0.8c0.3,0.2,0.8,0.4,1.7,0.6
			c0.9,0.2,1.5,0.5,1.9,0.9c0.4,0.4,0.7,0.9,0.7,1.7s-0.3,1.3-0.8,1.8c-0.6,0.5-1.3,0.7-2.2,0.7c-1.3,0-2.5-0.5-3.5-1.4l0.9-1.1
			c0.8,0.7,1.7,1.1,2.6,1.1c0.5,0,0.8-0.1,1.1-0.3c0.3-0.2,0.4-0.5,0.4-0.8c0-0.3-0.1-0.6-0.4-0.8c-0.3-0.2-0.7-0.3-1.3-0.5
			s-1.1-0.3-1.4-0.4s-0.6-0.3-0.9-0.5c-0.5-0.4-0.7-1-0.7-1.7s0.3-1.4,0.8-1.8c0.6-0.4,1.3-0.6,2.1-0.6c0.5,0,1.1,0.1,1.6,0.3
			c0.5,0.2,1,0.4,1.4,0.7l-0.8,1.1c-0.2-0.2-0.6-0.4-1-0.6S485.3,155.4,484.9,155.4z"/>
	</g>
	<path class="st1" d="M690.6,177.4H559.4c-2.1,0-3.9-1.8-3.9-3.9v-30.2c0-2.1,1.8-3.9,3.9-3.9h131.2c2.1,0,3.9,1.8,3.9,3.9v30.2
		C694.5,175.7,692.7,177.4,690.6,177.4z"/>
	<g>
		<path class="st0" d="M592.6,155.4c-0.4,0-0.8,0.1-1,0.3c-0.3,0.2-0.4,0.4-0.4,0.8c0,0.3,0.1,0.6,0.4,0.8c0.3,0.2,0.8,0.4,1.7,0.6
			c0.9,0.2,1.5,0.5,1.9,0.9c0.4,0.4,0.7,0.9,0.7,1.7s-0.3,1.3-0.8,1.8c-0.6,0.5-1.3,0.7-2.2,0.7c-1.3,0-2.5-0.5-3.5-1.4l0.9-1.1
			c0.8,0.7,1.7,1.1,2.6,1.1c0.5,0,0.8-0.1,1.1-0.3c0.3-0.2,0.4-0.5,0.4-0.8c0-0.3-0.1-0.6-0.4-0.8c-0.3-0.2-0.7-0.3-1.3-0.5
			s-1.1-0.3-1.4-0.4s-0.6-0.3-0.9-0.5c-0.5-0.4-0.7-1-0.7-1.7s0.3-1.4,0.8-1.8c0.6-0.4,1.3-0.6,2.1-0.6c0.5,0,1.1,0.1,1.6,0.3
			c0.5,0.2,1,0.4,1.4,0.7l-0.8,1.1c-0.2-0.2-0.6-0.4-1-0.6S593,155.4,592.6,155.4z"/>
		<path class="st0" d="M603.5,154.3v1.3H599v2.2h4v1.3h-4v2.2h4.6v1.3h-6v-8.4H603.5z"/>
		<path class="st0" d="M605.4,162.7v-8.4h1.4v7h3.8v1.3H605.4z"/>
		<path class="st0" d="M618.1,154.3v1.3h-4.5v2.2h4v1.3h-4v2.2h4.6v1.3h-6v-8.4H618.1z"/>
		<path class="st0" d="M623.9,161.4c0.5,0,0.9-0.1,1.3-0.2c0.4-0.2,0.7-0.4,1.1-0.8l0.9,0.9c-0.9,1-2,1.5-3.2,1.5
			c-1.3,0-2.3-0.4-3.2-1.2s-1.3-1.8-1.3-3.1s0.4-2.3,1.3-3.1c0.9-0.8,1.9-1.2,3.2-1.2s2.4,0.5,3.3,1.4l-0.9,1
			c-0.4-0.4-0.8-0.7-1.1-0.8c-0.4-0.2-0.8-0.2-1.3-0.2c-0.8,0-1.6,0.3-2.1,0.8s-0.9,1.2-0.9,2.1s0.3,1.6,0.9,2.1
			C622.5,161.1,623.1,161.4,623.9,161.4z"/>
		<path class="st0" d="M632.1,155.6v7.1h-1.4v-7.1h-2.5v-1.3h6.5v1.3H632.1z"/>
		<path class="st0" d="M643,161.5c-0.8,0.8-1.9,1.2-3.1,1.2s-2.3-0.4-3.1-1.2c-0.8-0.8-1.3-1.9-1.3-3.1c0-1.2,0.4-2.3,1.3-3.1
			c0.8-0.8,1.9-1.2,3.1-1.2s2.3,0.4,3.1,1.2c0.8,0.8,1.3,1.9,1.3,3.1C644.2,159.6,643.8,160.7,643,161.5z M641.9,156.3
			c-0.6-0.6-1.3-0.9-2.1-0.9s-1.5,0.3-2.1,0.9c-0.6,0.6-0.9,1.3-0.9,2.2s0.3,1.6,0.9,2.2c0.6,0.6,1.3,0.9,2.1,0.9s1.5-0.3,2.1-0.9
			c0.6-0.6,0.9-1.3,0.9-2.2S642.5,156.8,641.9,156.3z"/>
		<path class="st0" d="M652.7,157c0,1.4-0.6,2.3-1.8,2.6l2.2,3h-1.8l-2-2.8h-1.9v2.8H646v-8.4h3.1c1.3,0,2.2,0.2,2.7,0.6
			C652.4,155.4,652.7,156.1,652.7,157z M650.8,158.2c0.3-0.2,0.4-0.6,0.4-1.2s-0.1-0.9-0.4-1.1c-0.3-0.2-0.8-0.3-1.6-0.3h-1.8v3h1.8
			C650,158.6,650.5,158.4,650.8,158.2z"/>
		<path class="st0" d="M657.3,155.4c-0.4,0-0.8,0.1-1,0.3c-0.3,0.2-0.4,0.4-0.4,0.8c0,0.3,0.1,0.6,0.4,0.8c0.3,0.2,0.8,0.4,1.7,0.6
			c0.9,0.2,1.5,0.5,1.9,0.9c0.4,0.4,0.7,0.9,0.7,1.7s-0.3,1.3-0.8,1.8c-0.6,0.5-1.3,0.7-2.2,0.7c-1.3,0-2.5-0.5-3.5-1.4l0.9-1.1
			c0.8,0.7,1.7,1.1,2.6,1.1c0.5,0,0.8-0.1,1.1-0.3c0.3-0.2,0.4-0.5,0.4-0.8c0-0.3-0.1-0.6-0.4-0.8c-0.3-0.2-0.7-0.3-1.3-0.5
			s-1.1-0.3-1.4-0.4c-0.3-0.1-0.6-0.3-0.9-0.5c-0.5-0.4-0.7-1-0.7-1.7s0.3-1.4,0.8-1.8c0.6-0.4,1.3-0.6,2.1-0.6
			c0.5,0,1.1,0.1,1.6,0.3c0.5,0.2,1,0.4,1.4,0.7l-0.8,1.1c-0.2-0.2-0.6-0.4-1-0.6C658.1,155.5,657.7,155.4,657.3,155.4z"/>
	</g>
	<g>
		<path class="st0" d="M429.4,215.8l-0.8,1.9h-1.5l3.7-8.4h1.5l3.7,8.4h-1.5l-0.8-1.9H429.4z M433,214.5l-1.5-3.5l-1.5,3.5H433z"/>
		<path class="st0" d="M440.9,216.4c0.5,0,0.9-0.1,1.3-0.2c0.4-0.2,0.7-0.4,1.1-0.8l0.9,0.9c-0.9,1-2,1.5-3.2,1.5s-2.3-0.4-3.2-1.2
			s-1.3-1.8-1.3-3.1s0.4-2.3,1.3-3.1c0.9-0.8,1.9-1.2,3.2-1.2c1.3,0,2.4,0.5,3.3,1.4l-0.9,1c-0.4-0.4-0.8-0.7-1.1-0.8
			c-0.4-0.2-0.8-0.2-1.3-0.2c-0.8,0-1.6,0.3-2.1,0.8c-0.6,0.5-0.9,1.2-0.9,2.1s0.3,1.6,0.9,2.1C439.5,216.1,440.2,216.4,440.9,216.4
			z"/>
		<path class="st0" d="M449.1,210.6v7.1h-1.4v-7.1h-2.5v-1.3h6.5v1.3H449.1z"/>
		<path class="st0" d="M453.2,209.3h1.4v8.4h-1.4V209.3z"/>
		<path class="st0" d="M464,216.5c-0.8,0.8-1.9,1.2-3.1,1.2s-2.3-0.4-3.1-1.2c-0.8-0.8-1.3-1.9-1.3-3.1c0-1.2,0.4-2.3,1.3-3.1
			c0.8-0.8,1.9-1.2,3.1-1.2s2.3,0.4,3.1,1.2c0.8,0.8,1.3,1.9,1.3,3.1C465.2,214.6,464.8,215.7,464,216.5z M462.9,211.3
			c-0.6-0.6-1.3-0.9-2.1-0.9s-1.5,0.3-2.1,0.9c-0.6,0.6-0.9,1.3-0.9,2.2s0.3,1.6,0.9,2.2c0.6,0.6,1.3,0.9,2.1,0.9s1.5-0.3,2.1-0.9
			c0.6-0.6,0.9-1.3,0.9-2.2S463.5,211.8,462.9,211.3z"/>
		<path class="st0" d="M473.3,209.3h1.4v8.4h-1.5l-4.8-6.1v6.1H467v-8.4h1.4l4.9,6.3V209.3z"/>
		<path class="st0" d="M479.6,210.4c-0.4,0-0.8,0.1-1,0.3c-0.3,0.2-0.4,0.4-0.4,0.8c0,0.3,0.1,0.6,0.4,0.8c0.3,0.2,0.8,0.4,1.7,0.6
			c0.9,0.2,1.5,0.5,1.9,0.9c0.4,0.4,0.7,0.9,0.7,1.7s-0.3,1.3-0.8,1.8s-1.3,0.7-2.2,0.7c-1.3,0-2.5-0.5-3.5-1.4l0.9-1.1
			c0.8,0.7,1.7,1.1,2.6,1.1c0.5,0,0.8-0.1,1.1-0.3c0.3-0.2,0.4-0.5,0.4-0.8c0-0.3-0.1-0.6-0.4-0.8c-0.3-0.2-0.7-0.3-1.3-0.5
			s-1.1-0.3-1.4-0.4c-0.3-0.1-0.6-0.3-0.9-0.5c-0.5-0.4-0.7-1-0.7-1.7s0.3-1.4,0.8-1.8c0.6-0.4,1.3-0.6,2.1-0.6
			c0.5,0,1.1,0.1,1.6,0.3c0.5,0.2,1,0.4,1.4,0.7l-0.8,1.1c-0.2-0.2-0.6-0.4-1-0.6C480.4,210.5,480,210.4,479.6,210.4z"/>
	</g>
	<g>
		<path class="st4" d="M614,256.3h-3.7v-8.4h3.3c0.6,0,1.1,0.1,1.5,0.2c0.4,0.1,0.7,0.3,0.9,0.6c0.4,0.4,0.6,0.9,0.6,1.5
			c0,0.7-0.2,1.1-0.6,1.5c-0.2,0.1-0.3,0.2-0.3,0.2c-0.1,0-0.2,0.1-0.3,0.1c0.5,0.1,0.9,0.3,1.2,0.7c0.3,0.4,0.5,0.8,0.5,1.3
			c0,0.6-0.2,1.1-0.6,1.5C615.9,256.1,615.1,256.3,614,256.3z M611.7,251.4h1.8c1,0,1.5-0.3,1.5-1c0-0.4-0.1-0.7-0.4-0.9
			s-0.6-0.3-1.2-0.3h-1.8V251.4z M611.7,255h2.2c0.5,0,0.9-0.1,1.2-0.2c0.3-0.2,0.4-0.5,0.4-0.9c0-0.7-0.6-1.1-1.8-1.1h-2V255z"/>
		<path class="st4" d="M618.8,247.9h1.4v8.4h-1.4V247.9z"/>
		<path class="st4" d="M628.8,247.9h1.4v8.4h-1.5l-4.8-6.1v6.1h-1.4v-8.4h1.4l4.9,6.3V247.9z"/>
		<path class="st4" d="M638.9,249c0.8,0.7,1.2,1.8,1.2,3.1c0,1.3-0.4,2.3-1.2,3.1c-0.8,0.8-2,1.1-3.6,1.1h-2.8v-8.4h2.9
			C636.9,247.9,638.1,248.3,638.9,249z M638.7,252.1c0-1.9-1.1-2.9-3.3-2.9H634v5.7h1.6c1,0,1.8-0.2,2.3-0.7
			C638.4,253.8,638.7,253.1,638.7,252.1z"/>
	</g>
	<path class="st1" d="M342.8,144.2v195.4c0,2.4-1.9,4.3-4.3,4.3h-29.4c-2.4,0-4.3-1.9-4.3-4.3V144.2c0-2.4,1.9-4.3,4.3-4.3h29.4
		C340.8,139.9,342.8,141.9,342.8,144.2z"/>
	<g>
		<path class="st0" d="M327.4,325.7H319v-1.4h3.6v-4.2H319v-1.4h8.4v1.4h-3.4v4.2h3.4V325.7z"/>
		<path class="st0" d="M320.3,313.2h7.1v1.4h-7.1v2.5H319v-6.5h1.3V313.2z"/>
		<path class="st0" d="M320.3,305.9h7.1v1.4h-7.1v2.5H319v-6.5h1.3V305.9z"/>
		<path class="st0" d="M319.7,296.2c0.5-0.6,1.2-0.9,2.3-0.9s1.8,0.3,2.2,0.9c0.5,0.6,0.7,1.5,0.7,2.7v1.5h2.5v1.4H319V299
			C319,297.7,319.2,296.8,319.7,296.2z M323.2,297.2c-0.3-0.3-0.7-0.4-1.3-0.4c-0.6,0-1,0.2-1.2,0.5c-0.2,0.4-0.4,0.9-0.4,1.7v1.4
			h3.4v-1.6C323.6,298,323.5,297.5,323.2,297.2z"/>
		<path class="st0" d="M321.7,283.7c1.4,0,2.3,0.6,2.6,1.8l3-2.2v1.8l-2.8,2v1.9h2.8v1.4H319v-3.1c0-1.3,0.2-2.2,0.6-2.7
			C320.1,283.9,320.8,283.7,321.7,283.7z M322.9,285.5c-0.2-0.3-0.6-0.4-1.2-0.4s-0.9,0.1-1.1,0.4c-0.2,0.3-0.3,0.8-0.3,1.6v1.8h3
			v-1.8C323.3,286.4,323.1,285.8,322.9,285.5z"/>
		<path class="st0" d="M319,275.7h1.3v4.5h2.2v-4h1.3v4h2.2v-4.6h1.3v6H319V275.7z"/>
		<path class="st0" d="M327.4,269.7l0,0.2c0,1.2-0.4,2.3-1.2,3.1c-0.8,0.8-1.9,1.3-3.1,1.3c-1.2,0-2.3-0.4-3.1-1.3
			c-0.8-0.8-1.2-1.9-1.2-3.1s0.4-2.3,1.2-3.1c0.8-0.8,1.9-1.3,3.1-1.3c0.9,0,1.8,0.3,2.5,0.8c0.7,0.5,1.2,1.2,1.6,2
			c0.4-0.3,0.5-0.6,0.5-1c0-0.3-0.1-0.6-0.2-0.9c-0.2-0.3-0.4-0.5-0.6-0.7l1.1-0.8c0.7,0.7,1.1,1.5,1.1,2.4c0,0.5-0.1,1-0.4,1.5
			C328.3,269.2,328,269.5,327.4,269.7z M321,267.8c-0.6,0.6-0.9,1.3-0.9,2.1s0.3,1.5,0.9,2.1c0.6,0.6,1.3,0.9,2.2,0.9
			s1.6-0.3,2.2-0.9c0.6-0.6,0.9-1.3,0.9-2.1s-0.3-1.5-0.9-2.1c-0.6-0.6-1.3-0.9-2.2-0.9S321.6,267.2,321,267.8z"/>
		<path class="st0" d="M325.5,261.8c0.4-0.4,0.7-0.9,0.7-1.6s-0.2-1.2-0.7-1.6s-1.1-0.6-1.8-0.6H319v-1.4h4.7c1.2,0,2.1,0.3,2.8,1
			c0.7,0.7,1,1.5,1,2.6s-0.3,1.9-1,2.6c-0.7,0.7-1.6,1-2.8,1H319v-1.4h4.6C324.4,262.4,325,262.2,325.5,261.8z"/>
		<path class="st0" d="M319,248.6h1.3v4.5h2.2v-4h1.3v4h2.2v-4.6h1.3v6H319V248.6z"/>
		<path class="st0" d="M320.1,244.1c0,0.4,0.1,0.8,0.3,1c0.2,0.3,0.4,0.4,0.8,0.4c0.3,0,0.6-0.1,0.8-0.4c0.2-0.3,0.4-0.8,0.6-1.7
			c0.2-0.9,0.5-1.5,0.9-1.9c0.4-0.4,0.9-0.7,1.7-0.7s1.3,0.3,1.8,0.8c0.5,0.6,0.7,1.3,0.7,2.2c0,1.3-0.5,2.5-1.4,3.5l-1.1-0.9
			c0.7-0.8,1.1-1.7,1.1-2.6c0-0.5-0.1-0.8-0.3-1.1c-0.2-0.3-0.5-0.4-0.8-0.4c-0.3,0-0.6,0.1-0.8,0.4c-0.2,0.3-0.3,0.7-0.5,1.3
			s-0.3,1.1-0.4,1.4c-0.1,0.3-0.3,0.6-0.5,0.9c-0.4,0.5-1,0.7-1.7,0.7s-1.4-0.3-1.8-0.8s-0.6-1.3-0.6-2.1c0-0.5,0.1-1.1,0.3-1.6
			c0.2-0.5,0.4-1,0.7-1.4l1.1,0.8c-0.2,0.2-0.4,0.6-0.6,1C320.2,243.3,320.1,243.7,320.1,244.1z"/>
		<path class="st0" d="M320.3,235.9h7.1v1.4h-7.1v2.5H319v-6.5h1.3V235.9z"/>
		<path class="st0" d="M317.6,228.1v-1.2l11.1,5.2v1.2L317.6,228.1z"/>
		<path class="st0" d="M321.7,218.7c1.4,0,2.3,0.6,2.6,1.8l3-2.2v1.8l-2.8,2v1.9h2.8v1.4H319v-3.1c0-1.3,0.2-2.2,0.6-2.7
			C320.1,219,320.8,218.7,321.7,218.7z M322.9,220.6c-0.2-0.3-0.6-0.4-1.2-0.4s-0.9,0.1-1.1,0.4c-0.2,0.3-0.3,0.8-0.3,1.6v1.8h3
			v-1.8C323.3,221.4,323.1,220.9,322.9,220.6z"/>
		<path class="st0" d="M319,210.8h1.3v4.5h2.2v-4h1.3v4h2.2v-4.6h1.3v6H319V210.8z"/>
		<path class="st0" d="M320.1,206.3c0,0.4,0.1,0.8,0.3,1c0.2,0.3,0.4,0.4,0.8,0.4c0.3,0,0.6-0.1,0.8-0.4c0.2-0.3,0.4-0.8,0.6-1.7
			c0.2-0.9,0.5-1.5,0.9-1.9c0.4-0.4,0.9-0.7,1.7-0.7s1.3,0.3,1.8,0.8c0.5,0.6,0.7,1.3,0.7,2.2c0,1.3-0.5,2.5-1.4,3.5l-1.1-0.9
			c0.7-0.8,1.1-1.7,1.1-2.6c0-0.5-0.1-0.8-0.3-1.1c-0.2-0.3-0.5-0.4-0.8-0.4c-0.3,0-0.6,0.1-0.8,0.4c-0.2,0.3-0.3,0.7-0.5,1.3
			c-0.1,0.6-0.3,1.1-0.4,1.4c-0.1,0.3-0.3,0.6-0.5,0.9c-0.4,0.5-1,0.7-1.7,0.7s-1.4-0.3-1.8-0.8c-0.4-0.6-0.6-1.3-0.6-2.1
			c0-0.5,0.1-1.1,0.3-1.6c0.2-0.5,0.4-1,0.7-1.4l1.1,0.8c-0.2,0.2-0.4,0.6-0.6,1S320.1,205.9,320.1,206.3z"/>
		<path class="st0" d="M319.7,195.6c0.5-0.6,1.2-0.9,2.3-0.9s1.8,0.3,2.2,0.9c0.5,0.6,0.7,1.5,0.7,2.7v1.5h2.5v1.4H319v-2.9
			C319,197.1,319.2,196.2,319.7,195.6z M323.2,196.6c-0.3-0.3-0.7-0.4-1.3-0.4c-0.6,0-1,0.2-1.2,0.5c-0.2,0.4-0.4,0.9-0.4,1.7v1.4
			h3.4v-1.6C323.6,197.4,323.5,196.9,323.2,196.6z"/>
		<path class="st0" d="M326.2,186.1c0.8,0.8,1.2,1.9,1.2,3.1s-0.4,2.3-1.2,3.1c-0.8,0.8-1.9,1.3-3.1,1.3c-1.2,0-2.3-0.4-3.1-1.3
			c-0.8-0.8-1.2-1.9-1.2-3.1s0.4-2.3,1.2-3.1c0.8-0.8,1.9-1.3,3.1-1.3C324.4,184.8,325.4,185.2,326.2,186.1z M321,187.1
			c-0.6,0.6-0.9,1.3-0.9,2.1s0.3,1.5,0.9,2.1c0.6,0.6,1.3,0.9,2.2,0.9s1.6-0.3,2.2-0.9c0.6-0.6,0.9-1.3,0.9-2.1s-0.3-1.5-0.9-2.1
			c-0.6-0.6-1.3-0.9-2.2-0.9S321.6,186.5,321,187.1z"/>
		<path class="st0" d="M319,176.7v-1.4h8.4v1.5l-6.1,4.8h6.1v1.4H319v-1.4l6.3-4.9H319z"/>
		<path class="st0" d="M320.1,170.4c0,0.4,0.1,0.8,0.3,1c0.2,0.3,0.4,0.4,0.8,0.4c0.3,0,0.6-0.1,0.8-0.4c0.2-0.3,0.4-0.8,0.6-1.7
			c0.2-0.9,0.5-1.5,0.9-1.9c0.4-0.4,0.9-0.7,1.7-0.7s1.3,0.3,1.8,0.8c0.5,0.6,0.7,1.3,0.7,2.2c0,1.3-0.5,2.5-1.4,3.5l-1.1-0.9
			c0.7-0.8,1.1-1.7,1.1-2.6c0-0.5-0.1-0.8-0.3-1.1c-0.2-0.3-0.5-0.4-0.8-0.4c-0.3,0-0.6,0.1-0.8,0.4c-0.2,0.3-0.3,0.7-0.5,1.3
			c-0.1,0.6-0.3,1.1-0.4,1.4c-0.1,0.3-0.3,0.6-0.5,0.9c-0.4,0.5-1,0.7-1.7,0.7s-1.4-0.3-1.8-0.8c-0.4-0.6-0.6-1.3-0.6-2.1
			c0-0.5,0.1-1.1,0.3-1.6c0.2-0.5,0.4-1,0.7-1.4l1.1,0.8c-0.2,0.2-0.4,0.6-0.6,1S320.1,170,320.1,170.4z"/>
		<path class="st0" d="M319,159.5h1.3v4.5h2.2v-4h1.3v4h2.2v-4.6h1.3v6H319V159.5z"/>
	</g>
	<g>
		<path class="st4" d="M300.2,122.1c0.7,0,1.2-0.1,1.7-0.3c0.5-0.2,1-0.6,1.5-1l1.2,1.2c-1.2,1.3-2.6,2-4.3,2s-3.1-0.5-4.2-1.6
			s-1.7-2.5-1.7-4.1s0.6-3.1,1.7-4.2c1.1-1.1,2.6-1.7,4.3-1.7s3.2,0.6,4.3,1.9l-1.2,1.3c-0.5-0.5-1-0.9-1.5-1.1
			c-0.5-0.2-1-0.3-1.7-0.3c-1.1,0-2.1,0.4-2.8,1.1s-1.2,1.7-1.2,2.8c0,1.1,0.4,2.1,1.1,2.8S299.1,122.1,300.2,122.1z"/>
		<path class="st4" d="M306.9,123.8v-11.2h1.9v9.4h5.1v1.8H306.9z"/>
		<path class="st4" d="M315.9,112.6h1.9v11.2h-1.9V112.6z"/>
		<path class="st4" d="M328.8,112.6v1.8h-6v3h5.4v1.7h-5.4v3h6.2v1.8h-8v-11.2H328.8z"/>
		<path class="st4" d="M339.7,112.6h1.9v11.2h-2l-6.3-8.2v8.2h-1.9v-11.2h1.9l6.5,8.4V112.6z"/>
		<path class="st4" d="M349,114.3v9.5h-1.9v-9.5h-3.4v-1.7h8.7v1.7H349z"/>
	</g>
	<path class="st1" d="M236.7,271.4H35.2c-3.2,0-5.8-2.6-5.8-5.8v-26.4c0-3.2,2.6-5.8,5.8-5.8h201.5c3.2,0,5.8,2.6,5.8,5.8v26.4
		C242.5,268.8,239.9,271.4,236.7,271.4z"/>
	<g>
		<path class="st4" d="M34.9,330h1.4v8.4h-1.5l-4.8-6.1v6.1h-1.4V330H30l4.9,6.3V330z"/>
		<path class="st4" d="M45.7,337.2c-0.8,0.8-1.9,1.2-3.1,1.2s-2.3-0.4-3.1-1.2c-0.8-0.8-1.3-1.9-1.3-3.1s0.4-2.3,1.3-3.1
			c0.8-0.8,1.9-1.2,3.1-1.2s2.3,0.4,3.1,1.2c0.8,0.8,1.3,1.9,1.3,3.1S46.5,336.4,45.7,337.2z M44.6,331.9c-0.6-0.6-1.3-0.9-2.1-0.9
			s-1.5,0.3-2.1,0.9c-0.6,0.6-0.9,1.3-0.9,2.2s0.3,1.6,0.9,2.2c0.6,0.6,1.3,0.9,2.1,0.9s1.5-0.3,2.1-0.9c0.6-0.6,0.9-1.3,0.9-2.2
			S45.2,332.5,44.6,331.9z"/>
		<path class="st4" d="M51.7,331.3v7.1h-1.4v-7.1h-2.5V330h6.5v1.3H51.7z"/>
		<path class="st4" d="M62.9,338.4h-1.6l-3.4-8.4h1.6l2.6,6.3l2.6-6.3h1.6L62.9,338.4z"/>
		<path class="st4" d="M67.4,330h1.4v8.4h-1.4V330z"/>
		<path class="st4" d="M73.7,331.1c-0.4,0-0.8,0.1-1,0.3s-0.4,0.4-0.4,0.8c0,0.3,0.1,0.6,0.4,0.8c0.3,0.2,0.8,0.4,1.7,0.6
			s1.5,0.5,1.9,0.9s0.7,0.9,0.7,1.7c0,0.7-0.3,1.3-0.8,1.8c-0.6,0.5-1.3,0.7-2.2,0.7c-1.3,0-2.5-0.5-3.5-1.4l0.9-1.1
			c0.8,0.7,1.7,1.1,2.6,1.1c0.5,0,0.8-0.1,1.1-0.3c0.3-0.2,0.4-0.5,0.4-0.8s-0.1-0.6-0.4-0.8c-0.3-0.2-0.7-0.3-1.3-0.5
			s-1.1-0.3-1.4-0.4c-0.3-0.1-0.6-0.3-0.9-0.5c-0.5-0.4-0.7-1-0.7-1.7s0.3-1.4,0.8-1.8s1.3-0.6,2.1-0.6c0.5,0,1.1,0.1,1.6,0.3
			s1,0.4,1.4,0.7l-0.8,1.1c-0.2-0.2-0.6-0.4-1-0.6C74.5,331.1,74.1,331.1,73.7,331.1z"/>
		<path class="st4" d="M78.7,330h1.4v8.4h-1.4V330z"/>
		<path class="st4" d="M86.2,338.4h-3.7V330h3.3c0.6,0,1.1,0.1,1.5,0.2c0.4,0.1,0.7,0.3,0.9,0.6c0.4,0.4,0.6,0.9,0.6,1.5
			c0,0.7-0.2,1.1-0.6,1.5c-0.2,0.1-0.3,0.2-0.3,0.2c-0.1,0-0.2,0.1-0.3,0.1c0.5,0.1,0.9,0.3,1.2,0.7c0.3,0.4,0.5,0.8,0.5,1.3
			c0,0.6-0.2,1.1-0.6,1.5C88.1,338.1,87.3,338.4,86.2,338.4z M83.9,333.4h1.8c1,0,1.5-0.3,1.5-1c0-0.4-0.1-0.7-0.4-0.9
			c-0.2-0.2-0.6-0.3-1.2-0.3h-1.8V333.4z M83.9,337h2.2c0.5,0,0.9-0.1,1.2-0.2c0.3-0.2,0.4-0.5,0.4-0.9c0-0.7-0.6-1.1-1.8-1.1h-2
			V337z"/>
		<path class="st4" d="M91,338.4V330h1.4v7h3.8v1.3H91z"/>
		<path class="st4" d="M103.6,330v1.3h-4.5v2.2h4v1.3h-4v2.2h4.6v1.3h-6V330H103.6z"/>
	</g>
	<g>
		<path class="st4" d="M33.6,379H32l-3.4-8.4h1.6l2.6,6.3l2.6-6.3h1.6L33.6,379z"/>
		<path class="st4" d="M38.1,370.7h1.4v8.4h-1.4V370.7z"/>
		<path class="st4" d="M44.4,371.8c-0.4,0-0.8,0.1-1,0.3s-0.4,0.4-0.4,0.8c0,0.3,0.1,0.6,0.4,0.8c0.3,0.2,0.8,0.4,1.7,0.6
			s1.5,0.5,1.9,0.9s0.7,0.9,0.7,1.7c0,0.7-0.3,1.3-0.8,1.8c-0.6,0.5-1.3,0.7-2.2,0.7c-1.3,0-2.5-0.5-3.5-1.4l0.9-1.1
			c0.8,0.7,1.7,1.1,2.6,1.1c0.5,0,0.8-0.1,1.1-0.3c0.3-0.2,0.4-0.5,0.4-0.8s-0.1-0.6-0.4-0.8c-0.3-0.2-0.7-0.3-1.3-0.5
			s-1.1-0.3-1.4-0.4c-0.3-0.1-0.6-0.3-0.9-0.5c-0.5-0.4-0.7-1-0.7-1.7s0.3-1.4,0.8-1.8s1.3-0.6,2.1-0.6c0.5,0,1.1,0.1,1.6,0.3
			s1,0.4,1.4,0.7l-0.8,1.1c-0.2-0.2-0.6-0.4-1-0.6C45.3,371.8,44.8,371.8,44.4,371.8z"/>
		<path class="st4" d="M49.4,370.7h1.4v8.4h-1.4V370.7z"/>
		<path class="st4" d="M56.9,379h-3.7v-8.4h3.3c0.6,0,1.1,0.1,1.5,0.2c0.4,0.1,0.7,0.3,0.9,0.6c0.4,0.4,0.6,0.9,0.6,1.5
			c0,0.7-0.2,1.1-0.6,1.5c-0.2,0.1-0.3,0.2-0.3,0.2c-0.1,0-0.2,0.1-0.3,0.1c0.5,0.1,0.9,0.3,1.2,0.7c0.3,0.4,0.5,0.8,0.5,1.3
			c0,0.6-0.2,1.1-0.6,1.5C58.8,378.8,58,379,56.9,379z M54.6,374.1h1.8c1,0,1.5-0.3,1.5-1c0-0.4-0.1-0.7-0.4-0.9
			c-0.2-0.2-0.6-0.3-1.2-0.3h-1.8V374.1z M54.6,377.7h2.2c0.5,0,0.9-0.1,1.2-0.2c0.3-0.2,0.4-0.5,0.4-0.9c0-0.7-0.6-1.1-1.8-1.1h-2
			V377.7z"/>
		<path class="st4" d="M61.7,379v-8.4h1.4v7h3.8v1.3H61.7z"/>
		<path class="st4" d="M74.3,370.7v1.3h-4.5v2.2h4v1.3h-4v2.2h4.6v1.3h-6v-8.4H74.3z"/>
	</g>
	<g>
		<path class="st4" d="M33.2,48.7v6.7H44v3.8H33.2v10h-4.1V44.9h16.2l0,3.8H33.2z"/>
		<path class="st4" d="M69.5,52.8c0,4-1.8,6.5-5.3,7.6l6.4,8.8h-5.2l-5.8-8.2h-5.4v8.2h-4.1V44.9h9.1c3.7,0,6.4,0.6,8,1.9
			C68.7,48,69.5,50,69.5,52.8z M64.1,56.2c0.8-0.7,1.3-1.9,1.3-3.5s-0.4-2.7-1.3-3.3c-0.9-0.6-2.4-0.9-4.6-0.9h-5.2v8.7h5.1
			C61.7,57.3,63.2,57,64.1,56.2z"/>
		<path class="st4" d="M95.8,65.9c-2.5,2.4-5.5,3.6-9.1,3.6s-6.7-1.2-9.1-3.6c-2.5-2.4-3.7-5.4-3.7-9c0-3.6,1.2-6.6,3.7-9
			c2.5-2.4,5.5-3.6,9.1-3.6s6.7,1.2,9.1,3.6c2.5,2.4,3.7,5.4,3.7,9C99.5,60.5,98.3,63.5,95.8,65.9z M92.8,50.6
			c-1.7-1.7-3.7-2.6-6.1-2.6c-2.4,0-4.5,0.9-6.1,2.6c-1.7,1.7-2.5,3.8-2.5,6.3s0.8,4.5,2.5,6.3c1.7,1.7,3.7,2.6,6.1,2.6
			c2.4,0,4.5-0.9,6.1-2.6c1.7-1.7,2.5-3.8,2.5-6.3S94.5,52.4,92.8,50.6z"/>
		<path class="st4" d="M123,44.9h4.1v24.3h-4.5l-13.8-17.8v17.8h-4.1V44.9h4.1L123,63.1V44.9z"/>
		<path class="st4" d="M143,48.7v20.6h-4.1V48.7h-7.4v-3.8h18.9v3.8H143z"/>
		<path class="st4" d="M152,60.7V57h11.6v3.7H152z"/>
		<path class="st4" d="M186.6,44.9v3.9h-13v6.4h11.7v3.7h-11.7v6.5H187v3.9h-17.5V44.9H186.6z"/>
		<path class="st4" d="M210.5,44.9h4.1v24.3h-4.5l-13.8-17.8v17.8h-4.1V44.9h4.1l14.1,18.2V44.9z"/>
		<path class="st4" d="M239.8,48.1c2.3,2.1,3.5,5.1,3.5,8.9c0,3.8-1.1,6.8-3.4,9c-2.3,2.2-5.8,3.3-10.4,3.3h-8.1V44.9h8.4
			C234.1,44.9,237.4,46,239.8,48.1z M239.2,57c0-5.6-3.2-8.4-9.6-8.4h-4.1v16.7h4.6c2.9,0,5.2-0.7,6.8-2.1
			C238.4,61.9,239.2,59.8,239.2,57z"/>
		<path class="st4" d="M38,89.9c-1.2,0-2.2,0.2-2.9,0.7c-0.8,0.5-1.1,1.2-1.1,2.2c0,1,0.4,1.7,1.1,2.3c0.8,0.5,2.4,1.1,4.9,1.7
			c2.5,0.6,4.4,1.5,5.6,2.5c1.3,1.1,1.9,2.7,1.9,4.8s-0.8,3.8-2.4,5.2c-1.6,1.3-3.7,2-6.3,2c-3.8,0-7.2-1.3-10.1-3.9l2.6-3.1
			c2.5,2.1,5,3.2,7.7,3.2c1.3,0,2.4-0.3,3.2-0.9c0.8-0.6,1.2-1.3,1.2-2.3c0-0.9-0.4-1.7-1.1-2.2c-0.7-0.5-2-1-3.8-1.4
			c-1.8-0.4-3.1-0.8-4.1-1.2c-0.9-0.4-1.8-0.8-2.5-1.4c-1.4-1.1-2.2-2.8-2.2-5c0-2.3,0.8-4,2.5-5.2c1.6-1.2,3.7-1.8,6.1-1.8
			c1.6,0,3.1,0.3,4.6,0.8c1.5,0.5,2.9,1.2,4,2.2l-2.2,3.1c-0.7-0.6-1.7-1.2-2.9-1.6C40.4,90.1,39.2,89.9,38,89.9z"/>
		<path class="st4" d="M60,90.4V111h-4.1V90.4h-7.4v-3.8h18.9v3.8H60z"/>
		<path class="st4" d="M71.6,105.5l-2.4,5.5h-4.4l10.7-24.3h4.4L90.6,111h-4.4l-2.4-5.5H71.6z M82.1,101.7l-4.4-10l-4.4,10H82.1z"/>
		<path class="st4" d="M103.4,107.3c1.4,0,2.6-0.2,3.7-0.7c1-0.5,2.1-1.2,3.2-2.3l2.6,2.7c-2.6,2.9-5.7,4.3-9.4,4.3
			c-3.7,0-6.7-1.2-9.2-3.6c-2.4-2.4-3.6-5.4-3.6-9s1.2-6.6,3.7-9.1c2.5-2.4,5.6-3.6,9.4-3.6s6.9,1.4,9.5,4.2l-2.6,2.9
			c-1.2-1.1-2.3-1.9-3.3-2.3c-1-0.4-2.2-0.7-3.6-0.7c-2.5,0-4.5,0.8-6.2,2.4c-1.7,1.6-2.5,3.6-2.5,6.1c0,2.5,0.8,4.5,2.5,6.2
			C99.1,106.5,101.1,107.3,103.4,107.3z"/>
		<path class="st4" d="M116.2,86.7h4.1v11.9l11.1-11.9h5.2l-9.8,10.7l9.9,13.7h-4.9l-8.1-10.7l-3.6,3.8v6.8h-4.1V86.7z"/>
		<path class="st4" d="M150.8,90.5v6.7h10.8v3.8h-10.8v10h-4.1V86.7H163l0,3.8H150.8z"/>
		<path class="st4" d="M166,111V86.7h4.1v20.4h11.1v3.9H166z"/>
		<path class="st4" d="M203.7,107.7c-2.5,2.4-5.5,3.6-9.1,3.6c-3.6,0-6.7-1.2-9.1-3.6c-2.5-2.4-3.7-5.4-3.7-9c0-3.6,1.2-6.6,3.7-9
			c2.5-2.4,5.5-3.6,9.1-3.6c3.6,0,6.7,1.2,9.1,3.6c2.5,2.4,3.7,5.4,3.7,9C207.4,102.3,206.1,105.3,203.7,107.7z M200.7,92.4
			c-1.7-1.7-3.7-2.6-6.1-2.6c-2.4,0-4.5,0.9-6.1,2.6c-1.7,1.7-2.5,3.8-2.5,6.3c0,2.5,0.8,4.5,2.5,6.3c1.7,1.7,3.7,2.6,6.1,2.6
			c2.4,0,4.5-0.9,6.1-2.6c1.7-1.7,2.5-3.8,2.5-6.3C203.2,96.2,202.3,94.2,200.7,92.4z"/>
		<path class="st4" d="M218.2,104.2l5.4-17.5h3.7l5.4,17.5l6.1-17.5h4.4l-8.5,24.3h-4.1l-5.1-16.7h-0.3l-5.1,16.7h-4.1l-8.5-24.3
			h4.4L218.2,104.2z"/>
	</g>
	<g>
		<path class="st4" d="M393.4,62.2c0,1.8-0.8,3-2.4,3.5l2.9,4.1h-2.4l-2.7-3.8h-2.5v3.8h-1.9V58.6h4.2c1.7,0,2.9,0.3,3.7,0.9
			C393,60,393.4,61,393.4,62.2z M390.9,63.8c0.4-0.3,0.6-0.9,0.6-1.6c0-0.7-0.2-1.2-0.6-1.5c-0.4-0.3-1.1-0.4-2.1-0.4h-2.4v4h2.4
			C389.8,64.3,390.5,64.1,390.9,63.8z"/>
		<path class="st4" d="M404,58.6v1.8h-6v3h5.4V65H398v3h6.2v1.8h-8V58.6H404z"/>
		<path class="st4" d="M415,60.1c1.1,1,1.6,2.3,1.6,4.1c0,1.7-0.5,3.1-1.6,4.1c-1,1-2.6,1.5-4.8,1.5h-3.7V58.6h3.8
			C412.4,58.6,414,59.1,415,60.1z M414.7,64.2c0-2.6-1.5-3.8-4.4-3.8h-1.9V68h2.1c1.4,0,2.4-0.3,3.1-1
			C414.4,66.4,414.7,65.4,414.7,64.2z"/>
		<path class="st4" d="M421.6,67.2c0.5,0.6,1.2,0.9,2.1,0.9c0.9,0,1.6-0.3,2.1-0.9c0.5-0.6,0.8-1.4,0.8-2.4v-6.2h1.9v6.3
			c0,1.6-0.4,2.9-1.3,3.7c-0.9,0.9-2,1.3-3.4,1.3c-1.4,0-2.5-0.4-3.4-1.3c-0.9-0.9-1.3-2.1-1.3-3.7v-6.3h1.9v6.2
			C420.8,65.8,421.1,66.6,421.6,67.2z"/>
		<path class="st4" d="M438,69.8l-2.8-4.2h-0.1l-2.8,4.2h-2.4l3.8-5.7l-3.6-5.4h2.3l2.5,3.8h0.1l2.5-3.8h2.3l-3.6,5.4l3.8,5.7H438z"
			/>
	</g>
	<g>
		<path class="st8" d="M687,69.5c1-0.1,1.8-1,1.8-2.1c0-1.1-0.9-1.9-2-1.9h-0.1c-1.1,0-1.9,1-1.9,2.1c0,0.5,0.2,1,0.6,1.3
			c-1.2,2.4-3,4.1-5.8,5.6c-1.9,1-3.8,1.3-5.7,1.1c-1.6-0.2-2.8-0.9-3.6-2.1c-1.1-1.7-1.2-3.6-0.3-5.5c0.7-1.3,1.7-2.3,2.4-2.8
			c-0.1-0.5-0.4-1.2-0.5-1.8c-5.1,3.7-4.6,8.7-3,11.1c1.2,1.8,3.5,2.9,6.1,2.9c0.7,0,1.4-0.1,2.1-0.2
			C681.6,76.2,685.1,73.5,687,69.5L687,69.5z M693.2,65.1c-2.7-3.2-6.6-4.9-11.1-4.9h-0.6c-0.3-0.6-1-1.1-1.7-1.1h-0.1
			c-1.1,0-1.9,1-1.9,2.1c0,1.1,0.9,1.9,2,1.9h0.1c0.8,0,1.4-0.5,1.7-1.2h0.6c2.7,0,5.2,0.8,7.5,2.3c1.8,1.2,3,2.7,3.7,4.5
			c0.6,1.5,0.6,2.9-0.1,4.2c-1,1.9-2.6,2.9-4.8,2.9c-1.4,0-2.7-0.4-3.4-0.7c-0.4,0.4-1.1,0.9-1.6,1.3c1.5,0.7,3.1,1.1,4.5,1.1
			c3.4,0,5.9-1.9,6.8-3.8C695.9,71.6,695.8,68.1,693.2,65.1L693.2,65.1z M675.3,70.1c0,1.1,0.9,1.9,2,1.9h0.1c1.1,0,1.9-1,1.9-2.1
			c0-1.1-0.9-1.9-2-1.9h-0.1c-0.1,0-0.2,0-0.2,0c-1.4-2.4-2-5-1.8-7.9c0.1-2.1,0.8-4,2.1-5.5c1-1.3,3-1.9,4.3-2
			c3.7-0.1,5.3,4.6,5.4,6.5c0.5,0.1,1.2,0.4,1.8,0.5c-0.4-5.7-3.9-8.7-7.3-8.7c-3.2,0-6.1,2.3-7.2,5.7c-1.6,4.5-0.6,8.9,1.4,12.3
			C675.4,69.3,675.3,69.7,675.3,70.1L675.3,70.1z"/>
	</g>
	<g>
		<g>
			<line class="st1" x1="576.8" y1="186.2" x2="576.8" y2="251"/>
			<g>
				<polygon class="st0" points="583.4,250.1 570.3,250.1 576.8,256.7 				"/>
			</g>
		</g>
	</g>
	<line class="st9" x1="28.3" y1="354.5" x2="745" y2="354.5"/>
	<g>
		<path class="st0" d="M108,256.6h-3.7v-8.4h3.3c0.6,0,1.1,0.1,1.5,0.2c0.4,0.1,0.7,0.3,0.9,0.6c0.4,0.4,0.6,0.9,0.6,1.5
			c0,0.7-0.2,1.1-0.6,1.5c-0.2,0.1-0.3,0.2-0.3,0.2c-0.1,0-0.2,0.1-0.3,0.1c0.5,0.1,0.9,0.3,1.2,0.7s0.5,0.8,0.5,1.3
			c0,0.6-0.2,1.1-0.6,1.5C109.9,256.4,109.1,256.6,108,256.6z M105.7,251.7h1.8c1,0,1.5-0.3,1.5-1c0-0.4-0.1-0.7-0.4-0.9
			s-0.6-0.3-1.2-0.3h-1.8V251.7z M105.7,255.3h2.2c0.5,0,0.9-0.1,1.2-0.2c0.3-0.2,0.4-0.5,0.4-0.9c0-0.7-0.6-1.1-1.8-1.1h-2V255.3z"
			/>
		<path class="st0" d="M113.9,254.7l-0.8,1.9h-1.5l3.7-8.4h1.5l3.7,8.4h-1.5l-0.8-1.9H113.9z M117.5,253.4l-1.5-3.5l-1.5,3.5H117.5z
			"/>
		<path class="st0" d="M125.4,255.3c0.5,0,0.9-0.1,1.3-0.2s0.7-0.4,1.1-0.8l0.9,0.9c-0.9,1-2,1.5-3.2,1.5c-1.3,0-2.3-0.4-3.2-1.2
			c-0.8-0.8-1.3-1.8-1.3-3.1s0.4-2.3,1.3-3.1c0.9-0.8,1.9-1.2,3.2-1.2c1.3,0,2.4,0.5,3.3,1.4l-0.9,1c-0.4-0.4-0.8-0.7-1.1-0.8
			c-0.4-0.2-0.8-0.2-1.3-0.2c-0.8,0-1.6,0.3-2.1,0.8c-0.6,0.5-0.9,1.2-0.9,2.1s0.3,1.6,0.9,2.1C124,255,124.6,255.3,125.4,255.3z"/>
		<path class="st0" d="M130.4,248.2h1.4v4.1l3.8-4.1h1.8l-3.4,3.7l3.4,4.7h-1.7l-2.8-3.7l-1.2,1.3v2.4h-1.4V248.2z"/>
		<path class="st0" d="M148.1,248.2v1.3h-4.5v2.2h4v1.3h-4v2.2h4.6v1.3h-6v-8.4H148.1z"/>
		<path class="st0" d="M156.3,248.2h1.4v8.4h-1.5l-4.8-6.1v6.1H150v-8.4h1.4l4.9,6.3V248.2z"/>
		<path class="st0" d="M166.4,249.3c0.8,0.7,1.2,1.8,1.2,3.1c0,1.3-0.4,2.3-1.2,3.1c-0.8,0.8-2,1.1-3.6,1.1H160v-8.4h2.9
			C164.4,248.2,165.6,248.6,166.4,249.3z M166.2,252.4c0-1.9-1.1-2.9-3.3-2.9h-1.4v5.7h1.6c1,0,1.8-0.2,2.3-0.7
			C165.9,254.1,166.2,253.4,166.2,252.4z"/>
	</g>
</g>
</svg>
